<svg aria-hidden="true" style="position: absolute; width: 0; height: 0; overflow: hidden;" version="1.1" xmlns="http://www.w3.org/2000/svg" xmlns:xlink="http://www.w3.org/1999/xlink">
<defs>
<symbol id="icon-world" viewBox="0 0 24 24">
<title>world</title>
<path d="M12 2c-4.971 0-9 4.029-9 9s4.029 9 9 9 9-4.029 9-9-4.029-9-9-9zM14 4c0 1-0.5 2-1.5 2s-1.5 1-1.5 2 0 3 0 3 1 0 1-3c0-0.553 0.447-1 1-1s1 0.447 1 1v3c-0.552 0-1 0.448-1 1s0.448 1 1 1c0.553 0 1-0.448 1-1h1v-2l1 1-1 1c0 3 0 3-2 4 0-1-1-1-3-1v-2l-2-2v-2c-1 0-1 1-1 1l-2.951-2.951c0.11-0.192 0.225-0.382 0.35-0.564l0.523-0.678c1.468-1.716 3.644-2.807 6.078-2.807 0.691 0 1.359 0.098 2 0.262v0.738z"></path>
</symbol>
<symbol id="icon-storage" viewBox="0 0 24 24">
<title>storage</title>
<path d="M3.984 11.016v1.969h2.016v-1.969h-2.016zM2.016 14.016v-4.031h19.969v4.031h-19.969zM6 6.984v-1.969h-2.016v1.969h2.016zM2.016 3.984h19.969v4.031h-19.969v-4.031zM3.984 17.016v1.969h2.016v-1.969h-2.016zM2.016 20.016v-4.031h19.969v4.031h-19.969z"></path>
</symbol>
<symbol id="icon-chevron-left" viewBox="0 0 24 24">
<title>chevron-left</title>
<path d="M15.707 17.293l-5.293-5.293 5.293-5.293c0.391-0.391 0.391-1.024 0-1.414s-1.024-0.391-1.414 0l-6 6c-0.391 0.391-0.391 1.024 0 1.414l6 6c0.391 0.391 1.024 0.391 1.414 0s0.391-1.024 0-1.414z"></path>
</symbol>
<symbol id="icon-octagon" viewBox="0 0 24 24">
<title>octagon</title>
<path d="M7.86 1c-0.256 0-0.512 0.098-0.707 0.293l-5.86 5.86c-0.181 0.181-0.293 0.431-0.293 0.707v8.28c0 0.256 0.098 0.512 0.293 0.707l5.86 5.86c0.181 0.181 0.431 0.293 0.707 0.293h8.28c0.256 0 0.512-0.098 0.707-0.293l5.86-5.86c0.181-0.181 0.293-0.431 0.293-0.707v-8.28c0-0.256-0.098-0.512-0.293-0.707l-5.86-5.86c-0.181-0.181-0.431-0.293-0.707-0.293zM8.274 3h7.452l5.274 5.274v7.452l-5.274 5.274h-7.452l-5.274-5.274v-7.452z"></path>
</symbol>
<symbol id="icon-users" viewBox="0 0 24 24">
<title>users</title>
<path d="M18 21v-2c0-1.38-0.561-2.632-1.464-3.536s-2.156-1.464-3.536-1.464h-8c-1.38 0-2.632 0.561-3.536 1.464s-1.464 2.156-1.464 3.536v2c0 0.552 0.448 1 1 1s1-0.448 1-1v-2c0-0.829 0.335-1.577 0.879-2.121s1.292-0.879 2.121-0.879h8c0.829 0 1.577 0.335 2.121 0.879s0.879 1.292 0.879 2.121v2c0 0.552 0.448 1 1 1s1-0.448 1-1zM14 7c0-1.38-0.561-2.632-1.464-3.536s-2.156-1.464-3.536-1.464-2.632 0.561-3.536 1.464-1.464 2.156-1.464 3.536 0.561 2.632 1.464 3.536 2.156 1.464 3.536 1.464 2.632-0.561 3.536-1.464 1.464-2.156 1.464-3.536zM12 7c0 0.829-0.335 1.577-0.879 2.121s-1.292 0.879-2.121 0.879-1.577-0.335-2.121-0.879-0.879-1.292-0.879-2.121 0.335-1.577 0.879-2.121 1.292-0.879 2.121-0.879 1.577 0.335 2.121 0.879 0.879 1.292 0.879 2.121zM24 21v-2c-0.001-1.245-0.457-2.385-1.215-3.261-0.652-0.753-1.528-1.311-2.529-1.576-0.534-0.141-1.081 0.177-1.222 0.711s0.177 1.081 0.711 1.222c0.607 0.161 1.136 0.498 1.528 0.952 0.454 0.526 0.726 1.206 0.727 1.952v2c0 0.552 0.448 1 1 1s1-0.448 1-1zM15.752 4.099c0.803 0.206 1.445 0.715 1.837 1.377s0.531 1.47 0.325 2.273c-0.176 0.688-0.575 1.256-1.105 1.652-0.314 0.235-0.675 0.409-1.063 0.511-0.534 0.14-0.854 0.687-0.713 1.221s0.687 0.854 1.221 0.713c0.637-0.167 1.232-0.455 1.752-0.844 0.884-0.66 1.552-1.613 1.845-2.758 0.342-1.337 0.11-2.689-0.542-3.788s-1.725-1.953-3.062-2.296c-0.535-0.137-1.080 0.186-1.217 0.721s0.186 1.080 0.721 1.217z"></path>
</symbol>
<symbol id="icon-plugin" viewBox="0 0 20 20">
<title>plugin</title>
<path d="M20 14v4c0 1.105-0.895 2-2 2v0h-4v-2c0-1.105-0.895-2-2-2v0c-1.105 0-2 0.895-2 2v0 2h-4c-1.105 0-2-0.895-2-2v0-4h-2c-1.105 0-2-0.895-2-2v0c0-1.105 0.895-2 2-2v0h2v-4c0-1.1 0.9-2 2-2h4v-2c0-1.105 0.895-2 2-2v0c1.105 0 2 0.895 2 2v0 2h4c1.105 0 2 0.895 2 2v0 4h-2c-1.105 0-2 0.895-2 2v0c0 1.105 0.895 2 2 2v0h2z"></path>
</symbol>
<symbol id="icon-code" viewBox="0 0 20 20">
<title>code</title>
<path d="M5.719 14.75c-0.236 0-0.474-0.083-0.664-0.252l-5.060-4.498 5.341-4.748c0.412-0.365 1.044-0.33 1.411 0.083s0.33 1.045-0.083 1.412l-3.659 3.253 3.378 3.002c0.413 0.367 0.45 0.999 0.083 1.412-0.197 0.223-0.472 0.336-0.747 0.336zM14.664 14.748l5.341-4.748-5.060-4.498c-0.413-0.367-1.045-0.33-1.411 0.083s-0.33 1.045 0.083 1.412l3.378 3.003-3.659 3.252c-0.413 0.367-0.45 0.999-0.083 1.412 0.197 0.223 0.472 0.336 0.747 0.336 0.236 0 0.474-0.083 0.664-0.252zM9.986 16.165l2-12c0.091-0.545-0.277-1.060-0.822-1.151-0.547-0.092-1.061 0.277-1.15 0.822l-2 12c-0.091 0.545 0.277 1.060 0.822 1.151 0.056 0.009 0.11 0.013 0.165 0.013 0.48 0 0.904-0.347 0.985-0.835z"></path>
</symbol>
<symbol id="icon-cog" viewBox="0 0 20 20">
<title>cog</title>
<path d="M16.783 10c0-1.049 0.646-1.875 1.617-2.443-0.176-0.584-0.407-1.145-0.692-1.672-1.089 0.285-1.97-0.141-2.711-0.883-0.741-0.74-0.968-1.621-0.683-2.711-0.527-0.285-1.088-0.518-1.672-0.691-0.568 0.97-1.595 1.615-2.642 1.615-1.048 0-2.074-0.645-2.643-1.615-0.585 0.173-1.144 0.406-1.671 0.691 0.285 1.090 0.059 1.971-0.684 2.711-0.74 0.742-1.621 1.168-2.711 0.883-0.285 0.527-0.517 1.088-0.691 1.672 0.97 0.568 1.615 1.394 1.615 2.443 0 1.047-0.645 2.074-1.615 2.643 0.175 0.584 0.406 1.144 0.691 1.672 1.090-0.285 1.971-0.059 2.711 0.682s0.969 1.623 0.684 2.711c0.527 0.285 1.087 0.518 1.672 0.693 0.568-0.973 1.595-1.617 2.643-1.617 1.047 0 2.074 0.645 2.643 1.617 0.584-0.176 1.144-0.408 1.672-0.693-0.285-1.088-0.059-1.969 0.683-2.711 0.741-0.74 1.622-1.166 2.711-0.883 0.285-0.527 0.517-1.086 0.692-1.672-0.973-0.569-1.619-1.395-1.619-2.442zM10 13.652c-2.018 0-3.653-1.635-3.653-3.652 0-2.018 1.636-3.654 3.653-3.654s3.652 1.637 3.652 3.654c0 2.018-1.634 3.652-3.652 3.652z"></path>
</symbol>
<symbol id="icon-database" viewBox="0 0 20 20">
<title>database</title>
<path d="M16.726 12.641c-0.843 1.363-3.535 2.361-6.726 2.361s-5.883-0.998-6.727-2.361c-0.178-0.29-0.273-0.135-0.273 0.007 0 0.144 0 2.002 0 2.002 0 1.94 3.134 3.95 7 3.95s7-2.010 7-3.949c0 0 0-1.858 0-2.002s-0.096-0.298-0.274-0.008zM16.737 7.525c-0.83 1.205-3.532 2.090-6.737 2.090s-5.908-0.885-6.738-2.090c-0.171-0.248-0.262-0.113-0.262-0.002 0 0.113 0 2.357 0 2.357 0 1.762 3.134 3.189 7 3.189s7-1.428 7-3.189c0 0 0-2.244 0-2.357 0-0.111-0.092-0.246-0.263 0.002zM10 1c-3.866 0-7 1.18-7 2.633v1.26c0 1.541 3.134 2.791 7 2.791s7-1.25 7-2.791v-1.26c0-1.453-3.134-2.633-7-2.633z"></path>
</symbol>
<symbol id="icon-home" viewBox="0 0 20 20">
<title>home</title>
<path d="M18.672 11h-1.672v6c0 0.445-0.194 1-1 1h-4v-6h-4v6h-4c-0.806 0-1-0.555-1-1v-6h-1.672c-0.598 0-0.47-0.324-0.060-0.748l8.024-8.032c0.195-0.202 0.451-0.302 0.708-0.312 0.257 0.010 0.513 0.109 0.708 0.312l8.023 8.031c0.411 0.425 0.539 0.749-0.059 0.749z"></path>
</symbol>
<symbol id="icon-star" viewBox="0 0 20 20">
<title>star</title>
<path d="M10 1.3l2.388 6.722h6.412l-5.232 3.948 1.871 6.928-5.439-4.154-5.438 4.154 1.87-6.928-5.233-3.948h6.412l2.389-6.722z"></path>
</symbol>
<symbol id="icon-bell-o" viewBox="0 0 28 28">
<title>bell-o</title>
<path d="M14.25 26.5c0-0.141-0.109-0.25-0.25-0.25-1.234 0-2.25-1.016-2.25-2.25 0-0.141-0.109-0.25-0.25-0.25s-0.25 0.109-0.25 0.25c0 1.516 1.234 2.75 2.75 2.75 0.141 0 0.25-0.109 0.25-0.25zM3.844 22h20.312c-2.797-3.156-4.156-7.438-4.156-13 0-2.016-1.906-5-6-5s-6 2.984-6 5c0 5.563-1.359 9.844-4.156 13zM27 22c0 1.094-0.906 2-2 2h-7c0 2.203-1.797 4-4 4s-4-1.797-4-4h-7c-1.094 0-2-0.906-2-2 2.312-1.953 5-5.453 5-13 0-3 2.484-6.281 6.625-6.891-0.078-0.187-0.125-0.391-0.125-0.609 0-0.828 0.672-1.5 1.5-1.5s1.5 0.672 1.5 1.5c0 0.219-0.047 0.422-0.125 0.609 4.141 0.609 6.625 3.891 6.625 6.891 0 7.547 2.688 11.047 5 13z"></path>
</symbol>
<symbol id="icon-dedent" viewBox="0 0 28 28">
<title>dedent</title>
<path d="M6 8.5v9c0 0.266-0.234 0.5-0.5 0.5-0.125 0-0.266-0.047-0.359-0.141l-4.5-4.5c-0.094-0.094-0.141-0.234-0.141-0.359s0.047-0.266 0.141-0.359l4.5-4.5c0.094-0.094 0.234-0.141 0.359-0.141 0.266 0 0.5 0.234 0.5 0.5zM28 20.5v3c0 0.266-0.234 0.5-0.5 0.5h-27c-0.266 0-0.5-0.234-0.5-0.5v-3c0-0.266 0.234-0.5 0.5-0.5h27c0.266 0 0.5 0.234 0.5 0.5zM28 14.5v3c0 0.266-0.234 0.5-0.5 0.5h-17c-0.266 0-0.5-0.234-0.5-0.5v-3c0-0.266 0.234-0.5 0.5-0.5h17c0.266 0 0.5 0.234 0.5 0.5zM28 8.5v3c0 0.266-0.234 0.5-0.5 0.5h-17c-0.266 0-0.5-0.234-0.5-0.5v-3c0-0.266 0.234-0.5 0.5-0.5h17c0.266 0 0.5 0.234 0.5 0.5zM28 2.5v3c0 0.266-0.234 0.5-0.5 0.5h-27c-0.266 0-0.5-0.234-0.5-0.5v-3c0-0.266 0.234-0.5 0.5-0.5h27c0.266 0 0.5 0.234 0.5 0.5z"></path>
</symbol>
<symbol id="icon-folder" viewBox="0 0 32 32">
<title>folder</title>
<path d="M14 4l4 4h14v22h-32v-26z"></path>
</symbol>
</defs>
</svg>
